<svg version="1.1" xmlns="http://www.w3.org/2000/svg" viewBox="0 0 762.5400525717248 105.330078125" width="762.5400525717248" height="105.330078125">
  <!-- svg-source:excalidraw -->
  
  <defs>
    <style>
      @font-face {
        font-family: "Virgil";
        src: url("https://excalidraw.com/Virgil.woff2");
      }
      @font-face {
        font-family: "Cascadia";
        src: url("https://excalidraw.com/Cascadia.woff2");
      }
    </style>
  </defs>
  <rect x="0" y="0" width="762.5400525717248" height="105.330078125" fill="#ffffff"></rect><g stroke-linecap="round" transform="translate(95.8879223691485 19.357421875) rotate(0 44.444807759831434 37.95117187500003)"><path d="M36.75 -0.33 C44 -1.89, 53.65 0.97, 61.16 3.79 C68.67 6.6, 77.22 10.94, 81.8 16.55 C86.39 22.16, 88.47 30.67, 88.67 37.46 C88.87 44.26, 87.06 51.64, 82.99 57.32 C78.92 62.99, 71.62 68.32, 64.24 71.51 C56.87 74.69, 46.78 76.97, 38.74 76.41 C30.7 75.85, 22.22 72.68, 16.02 68.15 C9.82 63.62, 4.11 55.75, 1.54 49.22 C-1.03 42.68, -1.49 35.48, 0.6 28.94 C2.7 22.41, 6.57 15, 14.13 10.02 C21.68 5.04, 39.18 0.26, 45.93 -0.97 C52.68 -2.2, 54.52 1.95, 54.62 2.64 M27.41 2.36 C34.03 -0.6, 43.07 0.49, 50.85 1.58 C58.63 2.67, 67.77 4.27, 74.09 8.9 C80.42 13.53, 86.79 22.72, 88.78 29.35 C90.78 35.99, 88.64 42.66, 86.07 48.7 C83.5 54.74, 79.51 61.29, 73.36 65.61 C67.22 69.92, 57.06 73.67, 49.22 74.62 C41.37 75.56, 33.33 74.08, 26.32 71.29 C19.31 68.5, 11.56 63.54, 7.15 57.88 C2.74 52.21, -0.01 44.19, -0.15 37.3 C-0.29 30.4, 1.63 22.43, 6.31 16.53 C10.99 10.62, 24.68 3.79, 27.91 1.87 C31.14 -0.05, 25.42 4.13, 25.7 5.02" stroke="#000000" stroke-width="1" fill="none"></path></g><g stroke-linecap="round" transform="translate(262.19702085931704 15.671875) rotate(0 44.444807759831406 37.95117187500003)"><path d="M28.85 3.18 C36.03 0.65, 47.24 0.58, 55.06 1.88 C62.89 3.18, 70.23 6.22, 75.8 10.96 C81.38 15.71, 86.67 23.51, 88.49 30.36 C90.31 37.21, 89.85 45.74, 86.73 52.06 C83.62 58.38, 76.31 64.15, 69.81 68.26 C63.31 72.37, 55.7 76.31, 47.73 76.71 C39.76 77.11, 29.19 74.31, 21.97 70.65 C14.75 66.99, 7.89 60.72, 4.41 54.76 C0.94 48.8, 0.2 41.4, 1.11 34.9 C2.02 28.39, 3.12 21.42, 9.87 15.75 C16.62 10.07, 34.45 3.33, 41.59 0.85 C48.73 -1.63, 52.77 0.44, 52.71 0.87 M42 0.3 C49.85 -0.94, 60.68 0.69, 67.5 4.15 C74.32 7.6, 79.28 14.56, 82.92 21.03 C86.56 27.5, 90.1 36.06, 89.33 42.97 C88.56 49.87, 83.48 57.12, 78.31 62.47 C73.13 67.82, 65.85 73.1, 58.27 75.06 C50.7 77.02, 40.46 75.9, 32.85 74.24 C25.25 72.57, 17.95 69.9, 12.66 65.08 C7.36 60.26, 2.7 52.4, 1.08 45.34 C-0.53 38.28, 0.19 29.29, 2.97 22.73 C5.74 16.17, 11.32 9.76, 17.75 5.98 C24.17 2.2, 37.54 0.7, 41.54 0.06 C45.53 -0.58, 41.78 1.65, 41.73 2.15" stroke="#000000" stroke-width="1" fill="none"></path></g><g stroke-linecap="round" transform="translate(433.36498960931704 15.27734375) rotate(0 44.444807759831406 37.95117187500003)"><path d="M28.43 2.29 C35.15 -0.45, 44.62 0.26, 52.29 1.49 C59.96 2.72, 68.66 5.23, 74.48 9.67 C80.3 14.11, 85.31 21.35, 87.21 28.13 C89.11 34.91, 88.33 43.85, 85.87 50.35 C83.41 56.86, 78.65 63.03, 72.46 67.17 C66.26 71.31, 56.64 74.42, 48.7 75.2 C40.75 75.98, 31.86 74.99, 24.79 71.88 C17.72 68.76, 10.44 62.63, 6.27 56.53 C2.1 50.43, -0.58 42.06, -0.22 35.25 C0.14 28.44, 2.44 21.53, 8.42 15.68 C14.4 9.84, 29.71 2.75, 35.63 0.17 C41.55 -2.4, 43.84 -0.37, 43.94 0.22 M52.11 0.64 C59.68 0.83, 67.01 4.75, 72.92 9.29 C78.83 13.83, 85.34 21.38, 87.58 27.87 C89.82 34.36, 88.53 41.8, 86.38 48.25 C84.22 54.71, 80.85 61.83, 74.67 66.6 C68.49 71.37, 57.39 76.06, 49.3 76.85 C41.21 77.65, 32.99 74.66, 26.12 71.37 C19.25 68.07, 12.49 62.97, 8.1 57.09 C3.72 51.21, -0.33 42.87, -0.21 36.09 C-0.1 29.32, 4.41 21.96, 8.78 16.45 C13.16 10.94, 19 5.47, 26.03 3 C33.06 0.53, 46.71 1.74, 50.94 1.63 C55.18 1.52, 51.56 2.02, 51.45 2.33" stroke="#000000" stroke-width="1" fill="none"></path></g><g stroke-linecap="round" transform="translate(579.888427109317 10) rotate(0 44.444807759831406 37.95117187500003)"><path d="M59.32 2.33 C66.79 4.02, 75.14 8.94, 79.94 14.19 C84.74 19.44, 87.65 26.99, 88.13 33.85 C88.62 40.71, 86.37 49.14, 82.86 55.36 C79.35 61.58, 73.79 67.82, 67.06 71.16 C60.32 74.5, 50.62 75.97, 42.45 75.4 C34.27 74.83, 24.61 71.81, 18.01 67.74 C11.41 63.67, 5.84 57.17, 2.85 50.99 C-0.14 44.81, -1.55 37.42, 0.06 30.67 C1.67 23.91, 6.71 15.52, 12.51 10.46 C18.31 5.41, 25.41 1.13, 34.86 0.34 C44.32 -0.46, 62.38 3.65, 69.25 5.68 C76.11 7.71, 76.6 11.92, 76.06 12.51 M36.19 -0.78 C43.44 -2.52, 54.44 0.22, 61.63 2.87 C68.83 5.52, 74.76 9.31, 79.35 15.1 C83.94 20.88, 88.64 30.46, 89.18 37.59 C89.72 44.71, 86.64 52.25, 82.59 57.85 C78.54 63.46, 71.75 68.47, 64.86 71.21 C57.98 73.95, 49.49 74.76, 41.29 74.3 C33.08 73.84, 22.26 72.24, 15.64 68.45 C9.02 64.66, 3.75 58.28, 1.56 51.55 C-0.63 44.82, 0.24 34.87, 2.51 28.09 C4.77 21.31, 9.63 15.59, 15.15 10.86 C20.67 6.14, 31.84 1.09, 35.62 -0.27 C39.4 -1.63, 37.4 1.77, 37.82 2.71" stroke="#000000" stroke-width="1" fill="none"></path></g><g stroke-linecap="round"><g transform="translate(9.692609869148555 63.880859375) rotate(0 43.4560591117386 0.1946498578733724)"><path d="M1.16 0.94 C15.48 1.2, 72.2 1.17, 86.6 0.91 M0.31 0.39 C14.37 0.37, 70.93 -0.74, 85.39 -0.73" stroke="#000000" stroke-width="1" fill="none"></path></g><g transform="translate(9.692609869148555 63.880859375) rotate(0 43.4560591117386 0.1946498578733724)"><path d="M58.87 8.97 C68.88 6.56, 76.38 0.83, 87.13 1.04 M57.72 10.58 C68.35 6.5, 77.96 2.98, 84.78 -1.12" stroke="#000000" stroke-width="1" fill="none"></path></g><g transform="translate(9.692609869148555 63.880859375) rotate(0 43.4560591117386 0.1946498578733724)"><path d="M58.65 -11.55 C68.64 -6.65, 76.21 -5.07, 87.13 1.04 M57.5 -9.94 C68.35 -6.55, 78.03 -2.6, 84.78 -1.12" stroke="#000000" stroke-width="1" fill="none"></path></g></g><g stroke-linecap="round"><g transform="translate(168.57737549414855 53.318359375) rotate(0 44.39245818862696 0.4911246538425189)"><path d="M1.07 -0.91 C15.58 -0.79, 71.94 -0.16, 86.32 0.16 M0.17 1.22 C15.13 1.62, 74.19 2.13, 88.61 1.78" stroke="#000000" stroke-width="1" fill="none"></path></g><g transform="translate(168.57737549414855 53.318359375) rotate(0 44.39245818862696 0.4911246538425189)"><path d="M58.95 10.84 C67.48 9.86, 75.53 5.41, 90.44 0.9 M59.69 12.34 C69.73 9.43, 79.47 5.02, 87.83 1.47" stroke="#000000" stroke-width="1" fill="none"></path></g><g transform="translate(168.57737549414855 53.318359375) rotate(0 44.39245818862696 0.4911246538425189)"><path d="M58.85 -9.68 C67.31 -5.78, 75.37 -5.35, 90.44 0.9 M59.59 -8.18 C69.71 -4.26, 79.48 -1.84, 87.83 1.47" stroke="#000000" stroke-width="1" fill="none"></path></g></g><g stroke-linecap="round"><g transform="translate(338.45237549414855 52.349609375) rotate(0 43.5011222947482 -0.11659722575916476)"><path d="M0.31 -0.2 C14.79 -0.09, 73.7 -0.46, 87.99 -0.27 M-0.98 -1.36 C13.32 -0.97, 72.6 1.05, 87.49 1.12" stroke="#000000" stroke-width="1" fill="none"></path></g><g transform="translate(338.45237549414855 52.349609375) rotate(0 43.5011222947482 -0.11659722575916476)"><path d="M58.75 12.21 C69.86 5.13, 83.03 4.67, 89.13 0.95 M59.31 11.61 C68.63 8.12, 77.23 5.03, 87.68 0.65" stroke="#000000" stroke-width="1" fill="none"></path></g><g transform="translate(338.45237549414855 52.349609375) rotate(0 43.5011222947482 -0.11659722575916476)"><path d="M59.19 -8.3 C69.96 -7.34, 82.96 0.26, 89.13 0.95 M59.75 -8.91 C69.1 -5.8, 77.56 -2.28, 87.68 0.65" stroke="#000000" stroke-width="1" fill="none"></path></g></g><g stroke-linecap="round"><g transform="translate(491.76878174414855 52.443359375) rotate(0 43.918798886928755 -0.370993183938225)"><path d="M0.29 0.29 C14.82 0.14, 72.19 -1.11, 86.48 -1.03 M-1.01 -0.6 C13.97 -0.62, 73.95 0.06, 88.85 -0.03" stroke="#000000" stroke-width="1" fill="none"></path></g><g transform="translate(491.76878174414855 52.443359375) rotate(0 43.918798886928755 -0.370993183938225)"><path d="M61.11 9.05 C65.76 5.8, 75.58 6.61, 88.75 -0.49 M60.16 10.58 C69.03 7.24, 75.98 4.02, 87.99 0.97" stroke="#000000" stroke-width="1" fill="none"></path></g><g transform="translate(491.76878174414855 52.443359375) rotate(0 43.918798886928755 -0.370993183938225)"><path d="M61.18 -11.47 C65.79 -9.75, 75.6 -3.97, 88.75 -0.49 M60.24 -9.94 C69.23 -7.69, 76.16 -5.33, 87.99 0.97" stroke="#000000" stroke-width="1" fill="none"></path></g></g><g stroke-linecap="round"><g transform="translate(665.4836254941483 45.736328125) rotate(0 43.19706239111724 0.057409679508680256)"><path d="M0.52 0.76 C15.08 1.01, 72.66 0.86, 87.06 0.88 M-0.66 0.11 C13.76 0.08, 71.62 -0.6, 86.07 -0.79" stroke="#000000" stroke-width="1" fill="none"></path></g><g transform="translate(665.4836254941483 45.736328125) rotate(0 43.19706239111724 0.057409679508680256)"><path d="M59.27 9.71 C67.25 6.44, 74.94 5.58, 85.71 -0.34 M57.19 9.5 C66.35 7.2, 74.27 3.75, 85.53 -0.37" stroke="#000000" stroke-width="1" fill="none"></path></g><g transform="translate(665.4836254941483 45.736328125) rotate(0 43.19706239111724 0.057409679508680256)"><path d="M59.02 -10.81 C66.96 -8.43, 74.72 -3.64, 85.71 -0.34 M56.94 -11.02 C66.12 -7.45, 74.11 -5.03, 85.53 -0.37" stroke="#000000" stroke-width="1" fill="none"></path></g></g><g transform="translate(216.08323486914855 66.138671875) rotate(0 20 12.5)"><text x="0" y="18" font-family="Virgil, Segoe UI Emoji" font-size="20px" fill="#000000" text-anchor="start" style="white-space: pre;" direction="ltr">30s</text></g><g transform="translate(364.34495361914855 65.572265625) rotate(0 17 12.5)"><text x="0" y="18" font-family="Virgil, Segoe UI Emoji" font-size="20px" fill="#000000" text-anchor="start" style="white-space: pre;" direction="ltr">1min</text></g><g transform="translate(535.0871411191486 70.330078125) rotate(0 16 12.5)"><text x="0" y="18" font-family="Virgil, Segoe UI Emoji" font-size="20px" fill="#000000" text-anchor="start" style="white-space: pre;" direction="ltr">10s</text></g></svg>