<svg xmlns:xlink="http://www.w3.org/1999/xlink" xmlns="http://www.w3.org/2000/svg" class="css-ze2te4 css-qd6ojx" viewBox="0 0 100 100" width="110"  height="110" ><g transform="translate(0, 0) scale(2)" class="css-10qhoc8" fill="#46CDCF"><defs xmlns="http://www.w3.org/2000/svg"></defs><g xmlns="http://www.w3.org/2000/svg" fill="#46CDCF"><path class="fil0" d="M13.0424 15.2804l23.9152 0c0.213024,0 0.385728,0.172705 0.385728,0.385728l0 15.4745c0,0.213024 -0.172705,0.385732 -0.385728,0.385732l-23.9152 0c-0.213024,0 -0.385728,-0.172709 -0.385728,-0.385732l0 -15.4745c0,-0.213024 0.172705,-0.385728 0.385728,-0.385728zm1.22146 1.60719l0 13.0316 21.4723 0 0 -13.0316 -21.4723 0z" style="fill: {{COLOR}}; fill-rule: nonzero;" fill="#46CDCF"></path><polygon class="fil0" points="30.5708,34.7908 19.4292,34.7908 19.4292,33.6759 30.5708,33.6759 " style="fill: {{COLOR}}; fill-rule: nonzero;" fill="#46CDCF"></polygon><polygon class="fil0" points="17.3954,23.9155 17.3954,22.9824 22.7914,20.7045 22.7914,21.6983 18.5126,23.4546 22.7914,25.2261 22.7914,26.2218 " style="fill: {{COLOR}}; fill-rule: nonzero;" fill="#46CDCF"></polygon><polygon class="fil0" points="23.4192,27.6158 25.7805,19.1929 26.5809,19.1929 24.2252,27.6158 " style="fill: {{COLOR}}; fill-rule: nonzero;" fill="#46CDCF"></polygon><polygon class="fil0" points="32.5989,23.9155 27.203,26.2218 27.203,25.2261 31.4761,23.4546 27.203,21.6983 27.203,20.7045 32.5989,22.9824 " style="fill: {{COLOR}}; fill-rule: nonzero;" fill="#46CDCF"></polygon><polygon class="fil1" points="22.9616,31.1407 27.0384,31.1407 28.1635,33.801 21.8365,33.801 " style="fill: {{COLOR}};" fill="#46CDCF"></polygon></g><path xmlns="http://www.w3.org/2000/svg" class="fil0" d="M25.3857 0.226008l10.4391 6.027 -0.000759843 0.00131102 10.4369 6.02567 0.388744 0.224449 0 0.441539 0 12.054 0 12.054 0 0.441539 -0.388744 0.224449 -10.4369 6.02567 0.000759843 0.00131102 -10.4391 6.027 -0.385728 0.222685 -0.385728 -0.222685 -10.4391 -6.027 0.000759843 -0.00131102 -10.4369 -6.02567 -0.388744 -0.224449 0 -0.441539 0 -12.054 0 -12.054 0 -0.441539 0.388744 -0.224449 10.4369 -6.02567 -0.000759843 -0.00131102 10.4391 -6.027 0.385728 -0.222685 0.385728 0.222685zm-0.385748 2.4497l-7.65976 4.42235 0.000755906 0.00133071 -11.6762 6.74124 0 22.3187 11.6762 6.74124 -0.000755906 0.00131102 7.6598 4.42237 7.65976 -4.42235 -0.000755906 -0.00133071 11.6762 -6.74124 0 -22.3187 -11.6762 -6.74124 0.000755906 -0.00131102 -7.6598 -4.42237z" style="fill: {{COLOR}}; fill-rule: nonzero;" fill="#46CDCF"></path><rect xmlns="http://www.w3.org/2000/svg" class="fil2" width="50" height="50" style="" fill="none"></rect></g></svg>