<svg version="1.1" id="Layer_1" xmlns="http://www.w3.org/2000/svg" xmlns:xlink="http://www.w3.org/1999/xlink" x="0px" y="0px"
	 width="192" height="60" viewBox="0 0 320 100"  enable-background="new 0 0 1080 1080" xml:space="preserve">
<path fill="#85EBFF" opacity="1.000000" stroke="none" 
	d="
M576.000000,1081.000000 
	C384.022095,1081.000000 192.544189,1081.000000 1.033147,1081.000000 
	C1.033147,721.063660 1.033147,361.127289 1.033147,1.095460 
	C360.894806,1.095460 720.789612,1.095460 1080.842285,1.095460 
	C1080.842285,360.999939 1080.842285,720.999939 1080.842285,1081.000000 
	C912.793457,1081.000000 744.646729,1081.000000 576.000000,1081.000000 
M111.158340,606.194092 
	C111.025146,606.051697 110.891945,605.909241 110.773178,605.002075 
	C126.475960,554.033081 142.178741,503.064026 157.946243,451.884949 
	C142.182617,443.632141 126.915741,443.790131 111.908447,452.464630 
	C96.618065,461.302765 87.486809,475.268982 81.062782,491.185974 
	C70.964340,516.207153 69.232292,542.277710 72.411957,568.761902 
	C74.541992,586.503479 79.726158,603.206360 91.059517,617.555969 
	C107.406624,638.253601 137.276108,645.006592 159.740326,631.276672 
	C185.462204,615.555725 190.651398,589.009644 193.992294,560.696838 
	C187.475906,564.326355 181.988068,567.381775 176.501358,570.439270 
	C154.843292,582.508423 133.185577,594.578125 111.158340,606.194092 
M730.767517,514.776184 
	C730.501343,513.472107 730.245483,512.165771 729.967468,510.864227 
	C726.346130,493.911346 720.565552,477.919250 709.198364,464.435913 
	C693.684814,446.034210 673.150146,441.012604 651.839172,450.802063 
	C641.933167,455.352570 634.283936,462.843201 628.235413,471.813721 
	C610.875305,497.560516 606.144531,526.357483 608.564392,556.662170 
	C610.357239,579.114319 616.426270,600.106384 630.934631,618.045837 
	C652.185486,644.322388 687.224060,645.019409 709.228821,619.470703 
	C717.511047,609.854614 723.058899,598.767029 726.912598,586.769958 
	C734.416687,563.408569 734.395142,539.617004 730.767517,514.776184 
M988.613647,457.140625 
	C989.868958,454.944733 991.124268,452.748810 992.573730,450.213379 
	C957.253540,450.213379 922.737000,450.213379 887.664734,450.213379 
	C888.815125,452.159363 889.616638,453.593597 890.490723,454.982117 
	C904.956665,477.962524 919.363892,500.980499 933.981750,523.863953 
	C936.042542,527.089905 936.180664,529.472168 934.388611,532.899231 
	C917.645874,564.918213 901.103638,597.041992 884.517273,629.142578 
	C883.727356,630.671387 883.068054,632.267639 882.296082,633.945312 
	C921.177673,633.945312 959.530090,633.945312 998.392151,633.945312 
	C997.133301,631.482788 996.161133,629.563538 995.173645,627.652161 
	C978.814026,595.986267 962.498718,564.297302 946.020630,532.693176 
	C944.353760,529.496338 944.379456,527.207642 946.351929,524.117371 
	C960.423035,502.072296 974.281921,479.891785 988.613647,457.140625 
M380.997681,570.909912 
	C381.936676,591.978210 382.875641,613.046509 383.810699,634.026245 
	C395.619873,634.026245 406.705933,634.026245 418.084900,634.026245 
	C420.843048,572.538635 423.586029,511.388489 426.329102,450.236816 
	C409.035980,450.236816 392.491577,450.236816 375.569641,450.236816 
	C377.370026,490.438110 379.151001,530.206604 380.997681,570.909912 
z"/>
<path fill="#2E2A2A" opacity="1.000000" stroke="none" 
	d="
M730.831543,515.205566 
	C734.395142,539.617004 734.416687,563.408569 726.912598,586.769958 
	C723.058899,598.767029 717.511047,609.854614 709.228821,619.470703 
	C687.224060,645.019409 652.185486,644.322388 630.934631,618.045837 
	C616.426270,600.106384 610.357239,579.114319 608.564392,556.662170 
	C606.144531,526.357483 610.875305,497.560516 628.235413,471.813721 
	C634.283936,462.843201 641.933167,455.352570 651.839172,450.802063 
	C673.150146,441.012604 693.684814,446.034210 709.198364,464.435913 
	C720.565552,477.919250 726.346130,493.911346 729.967468,510.864227 
	C730.245483,512.165771 730.501343,513.472107 730.831543,515.205566 
z"/>
<path fill="#2F2B2B" opacity="1.000000" stroke="none" 
	d="
M111.527740,606.647644 
	C133.185577,594.578125 154.843292,582.508423 176.501358,570.439270 
	C181.988068,567.381775 187.475906,564.326355 193.992294,560.696838 
	C190.651398,589.009644 185.462204,615.555725 159.740326,631.276672 
	C137.276108,645.006592 107.406624,638.253601 91.059517,617.555969 
	C79.726158,603.206360 74.541992,586.503479 72.411957,568.761902 
	C69.232292,542.277710 70.964340,516.207153 81.062782,491.185974 
	C87.486809,475.268982 96.618065,461.302765 111.908447,452.464630 
	C126.915741,443.790131 142.182617,443.632141 157.946243,451.884949 
	C142.178741,503.064026 126.475960,554.033081 110.564354,605.536621 
	C110.746269,606.263367 111.137009,606.455505 111.527740,606.647644 
z"/>
<path fill="#2F2B2B" opacity="1.000000" stroke="none" 
	d="
M988.410950,457.447479 
	C974.281921,479.891785 960.423035,502.072296 946.351929,524.117371 
	C944.379456,527.207642 944.353760,529.496338 946.020630,532.693176 
	C962.498718,564.297302 978.814026,595.986267 995.173645,627.652161 
	C996.161133,629.563538 997.133301,631.482788 998.392151,633.945312 
	C959.530090,633.945312 921.177673,633.945312 882.296082,633.945312 
	C883.068054,632.267639 883.727356,630.671387 884.517273,629.142578 
	C901.103638,597.041992 917.645874,564.918213 934.388611,532.899231 
	C936.180664,529.472168 936.042542,527.089905 933.981750,523.863953 
	C919.363892,500.980499 904.956665,477.962524 890.490723,454.982117 
	C889.616638,453.593597 888.815125,452.159363 887.664734,450.213379 
	C922.737000,450.213379 957.253540,450.213379 992.573730,450.213379 
	C991.124268,452.748810 989.868958,454.944733 988.410950,457.447479 
z"/>
<path fill="#2F2B2C" opacity="1.000000" stroke="none" 
	d="
M380.964844,570.442505 
	C379.151001,530.206604 377.370026,490.438110 375.569641,450.236816 
	C392.491577,450.236816 409.035980,450.236816 426.329102,450.236816 
	C423.586029,511.388489 420.843048,572.538635 418.084900,634.026245 
	C406.705933,634.026245 395.619873,634.026245 383.810699,634.026245 
	C382.875641,613.046509 381.936676,591.978210 380.964844,570.442505 
z"/>
<path fill="#85EBFF" opacity="1.000000" stroke="none" 
	d="
M111.343048,606.420898 
	C111.137009,606.455505 110.746269,606.263367 110.557129,605.919067 
	C110.891945,605.909241 111.025146,606.051697 111.343048,606.420898 
z"/>
</svg>