<?xml version="1.0" standalone="no"?>
<!DOCTYPE svg PUBLIC "-//W3C//DTD SVG 20010904//EN"
 "http://www.w3.org/TR/2001/REC-SVG-20010904/DTD/svg10.dtd">
<svg xmlns:xlink="http://www.w3.org/1999/xlink" xmlns="http://www.w3.org/2000/svg" viewBox="0 0 320 100" 
preserveAspectRatio="xMidYMid meet" class="css-116ckqy" id="behhghfd" width="320"  height="100" >

<g transform="translate(0.000000,1080.000000) scale(0.100000,-0.100000)"
fill="#000000" stroke="none">
<path d="M1230 6336 c-301 -87 -505 -442 -527 -916 -21 -450 124 -804 380
-930 91 -45 157 -60 256 -60 261 0 460 187 546 513 22 82 48 247 41 254 -2 2
-188 -101 -415 -228 -226 -127 -414 -230 -416 -228 -2 2 97 330 221 729 123
399 231 747 239 773 l14 48 -56 26 c-68 31 -209 41 -283 19z"/>
<path d="M6606 6339 c-185 -44 -358 -226 -452 -478 -131 -348 -103 -830 65
-1116 77 -131 197 -242 311 -285 80 -31 220 -38 291 -15 181 59 327 209 412
425 157 398 97 975 -131 1270 -75 97 -178 170 -274 196 -59 15 -162 17 -222 3z"/>
<path d="M3750 6263 c0 -69 69 -1634 76 -1720 l6 -73 169 0 c93 0 169 1 169 3
0 1 18 400 40 887 22 487 40 900 40 918 l0 32 -250 0 -250 0 0 -47z"/>
<path d="M8870 6305 c0 -3 108 -176 240 -385 132 -210 240 -387 240 -394 0 -8
-121 -247 -269 -532 l-269 -519 576 -3 c316 -1 577 0 579 2 2 2 -97 199 -220
437 -123 239 -245 475 -271 526 l-47 91 230 365 c126 201 237 377 246 391 l17
26 -526 0 c-289 0 -526 -2 -526 -5z"/>
</g>
</svg>
