<svg xmlns:xlink="http://www.w3.org/1999/xlink" xmlns="http://www.w3.org/2000/svg" viewBox="0 0 320 100" preserveAspectRatio="xMidYMid meet" class="css-116ckqy" id="behhghfd" width="320"  height="100" ><defs id="SvgjsDefs1536"></defs><g id="SvgjsG1537" featurekey="symbolFeature-0" transform="matrix(2,0,0,2,0,0)" fill="#FFFFFF"><defs xmlns="http://www.w3.org/2000/svg"></defs><g xmlns="http://www.w3.org/2000/svg" fill="#FFFFFF"><path class="fil0" d="M13.0424 15.2804l23.9152 0c0.213024,0 0.385728,0.172705 0.385728,0.385728l0 15.4745c0,0.213024 -0.172705,0.385732 -0.385728,0.385732l-23.9152 0c-0.213024,0 -0.385728,-0.172709 -0.385728,-0.385732l0 -15.4745c0,-0.213024 0.172705,-0.385728 0.385728,-0.385728zm1.22146 1.60719l0 13.0316 21.4723 0 0 -13.0316 -21.4723 0z" style="fill-rule: nonzero;" fill="#FFFFFF"></path><polygon class="fil0" points="30.5708,34.7908 19.4292,34.7908 19.4292,33.6759 30.5708,33.6759 " style="fill-rule: nonzero;" fill="#FFFFFF"></polygon><polygon class="fil0" points="17.3954,23.9155 17.3954,22.9824 22.7914,20.7045 22.7914,21.6983 18.5126,23.4546 22.7914,25.2261 22.7914,26.2218 " style="fill-rule: nonzero;" fill="#FFFFFF"></polygon><polygon class="fil0" points="23.4192,27.6158 25.7805,19.1929 26.5809,19.1929 24.2252,27.6158 " style="fill-rule: nonzero;" fill="#FFFFFF"></polygon><polygon class="fil0" points="32.5989,23.9155 27.203,26.2218 27.203,25.2261 31.4761,23.4546 27.203,21.6983 27.203,20.7045 32.5989,22.9824 " style="fill-rule: nonzero;" fill="#FFFFFF"></polygon><polygon class="fil1" points="22.9616,31.1407 27.0384,31.1407 28.1635,33.801 21.8365,33.801 " style="" fill="#FFFFFF"></polygon></g><path xmlns="http://www.w3.org/2000/svg" class="fil0" d="M25.3857 0.226008l10.4391 6.027 -0.000759843 0.00131102 10.4369 6.02567 0.388744 0.224449 0 0.441539 0 12.054 0 12.054 0 0.441539 -0.388744 0.224449 -10.4369 6.02567 0.000759843 0.00131102 -10.4391 6.027 -0.385728 0.222685 -0.385728 -0.222685 -10.4391 -6.027 0.000759843 -0.00131102 -10.4369 -6.02567 -0.388744 -0.224449 0 -0.441539 0 -12.054 0 -12.054 0 -0.441539 0.388744 -0.224449 10.4369 -6.02567 -0.000759843 -0.00131102 10.4391 -6.027 0.385728 -0.222685 0.385728 0.222685zm-0.385748 2.4497l-7.65976 4.42235 0.000755906 0.00133071 -11.6762 6.74124 0 22.3187 11.6762 6.74124 -0.000755906 0.00131102 7.6598 4.42237 7.65976 -4.42235 -0.000755906 -0.00133071 11.6762 -6.74124 0 -22.3187 -11.6762 -6.74124 0.000755906 -0.00131102 -7.6598 -4.42237z" style="fill-rule: nonzero;" fill="#FFFFFF"></path><rect xmlns="http://www.w3.org/2000/svg" class="fil2" width="50" height="50" style="" fill="none"></rect></g><g id="SvgjsG1538" featurekey="nameFeature-0" transform="matrix(1.2226844000929475,0,0,1.2226844000929475,118.63866146132763,18.6239014128613)" fill="#FFFFFF"><path d="M8.3008 33.0859 c-1.9531 -1.9531 -2.9297 -4.31 -2.9297 -7.0703 s0.97656 -5.1172 2.9297 -7.0703 c1.9531 -1.9662 4.31 -2.9492 7.0703 -2.9492 c1.6927 0 3.2748 0.40365 4.7461 1.2109 l0 -4.6484 c-1.5365 -0.53385 -3.1186 -0.80078 -4.7461 -0.80078 c-3.9322 0 -7.2916 1.3932 -10.078 4.1797 s-4.1797 6.1459 -4.1797 10.078 s1.3932 7.2916 4.1797 10.078 s6.1459 4.1797 10.078 4.1797 c1.6276 0 3.2096 -0.27344 4.7461 -0.82031 l0 -4.6289 c-1.4713 0.79428 -3.0533 1.1914 -4.7461 1.1914 c-2.7604 0 -5.1172 -0.97656 -7.0703 -2.9297 z M23.8476625 12.050999999999998 l0 27.949 l5.1953 0 l12.383 -21.035 l0 21.035 l5.1953 0 l16.465 -27.949 l-4.9219 0 l-12.48 21.191 l0 -21.191 l-5.1172 0 l-12.48 21.191 l0 -21.191 l-4.2383 0 z M67.94953125 12.050999999999998 l-17.676 27.949 l5.0195 0 l4.1211 -6.5234 l9.4922 0 l0 6.5234 l4.2578 0 l0 -27.949 l-5.2148 0 z M68.90653125 18.477 l0 10.762 l-6.8164 0 z M81.9531375 23.984 l0 -7.6953 l6.0742 0 c1.0547 0 1.9596 0.3776 2.7148 1.1328 c0.74219 0.75521 1.1133 1.6667 1.1133 2.7344 c0 1.0547 -0.37109 1.9531 -1.1133 2.6953 c-0.75521 0.75521 -1.6602 1.1328 -2.7148 1.1328 l-6.0742 0 z M91.1909375 27.578 c1.4583 -0.625 2.6367 -1.6015 3.5352 -2.9297 c0.92447 -1.3542 1.3867 -2.8516 1.3867 -4.4922 c0 -2.2396 -0.79428 -4.1471 -2.3828 -5.7227 c-1.5755 -1.5885 -3.4766 -2.3828 -5.7031 -2.3828 l-10.313 0 l0 27.949 l4.2383 0 l0 -11.777 l4.7852 0 l6.1133 11.777 l4.7852 0 z M105.9961125 33.0859 c-1.9531 -1.9531 -2.9297 -4.31 -2.9297 -7.0703 s0.97656 -5.1172 2.9297 -7.0703 c1.9531 -1.9662 4.31 -2.9492 7.0703 -2.9492 c1.6927 0 3.2748 0.40365 4.7461 1.2109 l0 -4.6484 c-1.5365 -0.53385 -3.1186 -0.80078 -4.7461 -0.80078 c-3.9322 0 -7.2916 1.3932 -10.078 4.1797 s-4.1797 6.1459 -4.1797 10.078 s1.3932 7.2916 4.1797 10.078 s6.1459 4.1797 10.078 4.1797 c1.6276 0 3.2096 -0.27344 4.7461 -0.82031 l0 -4.6289 c-1.4713 0.79428 -3.0533 1.1914 -4.7461 1.1914 c-2.7604 0 -5.1172 -0.97656 -7.0703 -2.9297 z M124.453175 37.3437 c-1.9401 -1.9401 -2.9102 -4.2838 -2.9102 -7.0313 l0 -18.281 l4.2578 0 l0 18.281 c0 1.5755 0.55338 2.9166 1.6602 4.0234 c1.1198 1.1198 2.4609 1.6797 4.0234 1.6797 c1.5755 0 2.9166 -0.5599 4.0234 -1.6797 c1.1198 -1.1068 1.6797 -2.4479 1.6797 -4.0234 l0 -18.281 l4.2578 0 l0 18.281 c0 2.7475 -0.97656 5.0912 -2.9297 7.0313 c-1.9401 1.9401 -4.2838 2.9102 -7.0313 2.9102 c-2.7344 0 -5.0781 -0.97006 -7.0313 -2.9102 z M150.52731875 23.984 l6.0742 0.000019073 c1.0547 0 1.9596 -0.3776 2.7148 -1.1328 c0.74219 -0.74219 1.1133 -1.6406 1.1133 -2.6953 c0 -1.0677 -0.37109 -1.9791 -1.1133 -2.7344 c-0.75521 -0.75521 -1.6602 -1.1328 -2.7148 -1.1328 l-6.0742 0 l0 7.6953 z M150.52731875 40.000019073 l-4.2383 -0.000019073 l0 -27.949 l10.313 0 c2.2266 0 4.1275 0.79428 5.7031 2.3828 c1.5885 1.5755 2.3828 3.483 2.3828 5.7227 c0 2.2266 -0.79428 4.1275 -2.3828 5.7031 c-1.5755 1.5755 -3.4766 2.3633 -5.7031 2.3633 l-6.0742 0 l0 11.777 z" fill="#FFFFFF"></path></g></svg>